<svg xmlns="http://www.w3.org/2000/svg" width="179.645" height="41" viewBox="0 0 179.645 41">
  <g id="logo-with-text" transform="translate(-112 -117)">
    <path id="logomark" d="M0,20.5A20.5,20.5,0,0,1,37.128,8.508a41.373,41.373,0,0,0,6.731-.525,35.921,35.921,0,0,0,7.018-2.155,27.1,27.1,0,0,1-3.428,5.322,18.955,18.955,0,0,1-4.464,3.49,29.048,29.048,0,0,0,4.963,0,57.373,57.373,0,0,0,6.018-.888,48.915,48.915,0,0,1-6.978,6.255,58.244,58.244,0,0,1-6.263,3.856A20.5,20.5,0,0,1,0,20.5Z" transform="translate(112 117)" fill="#eee"/>
    <path id="Path_1" data-name="Path 1" d="M1.342-2.376q0-.077,0-.181t.016-.308q.017-.2.055-.539t.1-.875l.605-4.884h-.99a.457.457,0,0,1-.358-.154.552.552,0,0,1-.093-.462l.143-1.188,1.716-.33.935-2.937a.643.643,0,0,1,.671-.5H5.775l-.429,3.454H8L7.744-9.163H5.093L4.51-4.444q-.055.451-.088.715t-.049.407q-.017.143-.016.193v.071a.967.967,0,0,0,.176.611.628.628,0,0,0,.528.226A1.046,1.046,0,0,0,5.4-2.272a1.426,1.426,0,0,0,.247-.11l.192-.11a.376.376,0,0,1,.187-.049.3.3,0,0,1,.209.06.648.648,0,0,1,.132.2l.66,1.452a4.676,4.676,0,0,1-1.4.748A4.808,4.808,0,0,1,4.1.176,2.81,2.81,0,0,1,2.118-.5,2.564,2.564,0,0,1,1.342-2.376Zm23.584-8.965L20.273,0H17.919a.382.382,0,0,1-.3-.121.849.849,0,0,1-.165-.407l-.968-6.138q-.066-.44-.1-.891-.077.231-.165.457t-.176.456L13.6-.528Q13.376,0,12.947,0H10.681L8.789-11.341H11.11a.759.759,0,0,1,.49.154.688.688,0,0,1,.247.4l.506,5.61q.066,1.045.1,2.013l.374-.99q.187-.495.407-1.023l2.211-5.632a.813.813,0,0,1,.313-.385.868.868,0,0,1,.5-.154h1.3a.8.8,0,0,1,.512.154.544.544,0,0,1,.215.385L19.1-5.181q.077.517.138,1.012t.115.99q.143-.495.3-.985t.341-1.017l1.914-5.61a.815.815,0,0,1,.308-.4.843.843,0,0,1,.495-.154Zm4.4,0L27.973,0H24.981l1.353-11.341Zm.66-3.223a1.621,1.621,0,0,1-.159.715,2.069,2.069,0,0,1-.418.583,1.915,1.915,0,0,1-.594.4,1.738,1.738,0,0,1-.687.143,1.66,1.66,0,0,1-.677-.143,1.819,1.819,0,0,1-.572-.4,2,2,0,0,1-.4-.583,1.722,1.722,0,0,1-.149-.715,1.681,1.681,0,0,1,.154-.71,2.066,2.066,0,0,1,.4-.588,1.9,1.9,0,0,1,.572-.4,1.608,1.608,0,0,1,.676-.148,1.764,1.764,0,0,1,.7.143,1.849,1.849,0,0,1,.588.4,2.01,2.01,0,0,1,.407.589A1.706,1.706,0,0,1,29.986-14.564Zm1.4,12.188v-.181q0-.1.017-.308t.055-.539q.039-.335.1-.875l.616-4.928h-.946a.5.5,0,0,1-.374-.149.53.53,0,0,1-.11-.446l.154-1.144,1.672-.319.946-2.97a.665.665,0,0,1,.671-.5h1.639l-.44,3.476h3.971l.946-2.981a.672.672,0,0,1,.682-.5h1.628l-.429,3.476H44.8l-.264,2.046H41.932l-.583,4.763q-.055.451-.088.715t-.049.407l-.022.193q-.005.05-.006.071a.946.946,0,0,0,.181.611.644.644,0,0,0,.534.226,1.046,1.046,0,0,0,.341-.049,1.426,1.426,0,0,0,.248-.11l.192-.11a.376.376,0,0,1,.187-.049.33.33,0,0,1,.209.06.466.466,0,0,1,.132.2l.66,1.452a4.841,4.841,0,0,1-1.4.748,4.758,4.758,0,0,1-1.524.253A2.806,2.806,0,0,1,38.951-.5a2.575,2.575,0,0,1-.77-1.876v-.181q0-.1.016-.308t.055-.539q.038-.335.1-.875l.6-4.928H35.134l-.583,4.763q-.055.451-.088.715t-.049.407q-.016.143-.016.193v.071a.967.967,0,0,0,.176.611.628.628,0,0,0,.528.226,1.085,1.085,0,0,0,.352-.049,1.426,1.426,0,0,0,.247-.11l.193-.11a.356.356,0,0,1,.176-.049.325.325,0,0,1,.214.06.5.5,0,0,1,.127.2l.66,1.452a4.676,4.676,0,0,1-1.4.748,4.775,4.775,0,0,1-1.518.253,2.826,2.826,0,0,1-2-.677A2.564,2.564,0,0,1,31.383-2.376Zm19.646-7.04a2.1,2.1,0,0,0-.913.2,2.577,2.577,0,0,0-.775.572,3.814,3.814,0,0,0-.611.886A5.636,5.636,0,0,0,48.3-6.6a17.331,17.331,0,0,0,1.974-.379,5.075,5.075,0,0,0,1.166-.44,1.319,1.319,0,0,0,.55-.511,1.31,1.31,0,0,0,.138-.594.816.816,0,0,0-.066-.314.837.837,0,0,0-.2-.286,1.036,1.036,0,0,0-.341-.209A1.346,1.346,0,0,0,51.029-9.416Zm-2.97,4.763q0,2.519,2.123,2.519a3.082,3.082,0,0,0,1.149-.182,4.234,4.234,0,0,0,.765-.4l.588-.4a1.086,1.086,0,0,1,.622-.182.623.623,0,0,1,.292.072.885.885,0,0,1,.247.193l.77.924A11.154,11.154,0,0,1,53.46-1.084a6.407,6.407,0,0,1-1.166.7,5.614,5.614,0,0,1-1.265.413,7.417,7.417,0,0,1-1.452.132,4.736,4.736,0,0,1-1.826-.341,4.052,4.052,0,0,1-1.414-.963,4.343,4.343,0,0,1-.913-1.5A5.578,5.578,0,0,1,45.1-4.587a7.8,7.8,0,0,1,.2-1.76,7.65,7.65,0,0,1,.572-1.628,6.99,6.99,0,0,1,.908-1.414A5.921,5.921,0,0,1,47.993-10.5a5.811,5.811,0,0,1,1.49-.731,5.512,5.512,0,0,1,1.722-.264,4.467,4.467,0,0,1,1.578.259,3.615,3.615,0,0,1,1.15.671,2.848,2.848,0,0,1,.7.918,2.372,2.372,0,0,1,.236,1.012,3.171,3.171,0,0,1-.308,1.4A2.9,2.9,0,0,1,53.482-6.1a7.449,7.449,0,0,1-2.09.858,20.881,20.881,0,0,1-3.333.556ZM59.741-8.811a7.818,7.818,0,0,1,.907-1.353,4.169,4.169,0,0,1,1-.875A2.458,2.458,0,0,1,62.7-11.4a2.179,2.179,0,0,1,1.089.193l-.55,2.849a2.6,2.6,0,0,0-1.215-.231,1.837,1.837,0,0,0-1.045.44A3.572,3.572,0,0,0,60.115-7a9.128,9.128,0,0,0-.671,1.914L58.828,0H55.847l1.375-11.352h1.562a1.083,1.083,0,0,1,.737.231.931.931,0,0,1,.264.737Zm4.752.957h5.39l-.308,2.4H64.2Zm14.421-.792a2.029,2.029,0,0,0-.8-.468,2.922,2.922,0,0,0-.864-.137,1.939,1.939,0,0,0-1.21.424A3.723,3.723,0,0,0,75.1-7.717a6.09,6.09,0,0,0-.616,1.562,7.21,7.21,0,0,0-.22,1.766,3.119,3.119,0,0,0,.352,1.672,1.108,1.108,0,0,0,.979.539,1.476,1.476,0,0,0,.825-.291,3.727,3.727,0,0,0,.825-.8,7.258,7.258,0,0,0,.743-1.188,9.3,9.3,0,0,0,.589-1.463ZM82.852-16.4,80.817,0H79.2a1.3,1.3,0,0,1-.479-.077.743.743,0,0,1-.3-.209.763.763,0,0,1-.154-.308,1.586,1.586,0,0,1-.044-.385l.055-1.287A6.811,6.811,0,0,1,76.489-.484a3.742,3.742,0,0,1-2.1.649,3.2,3.2,0,0,1-1.287-.253,2.548,2.548,0,0,1-1-.775,3.753,3.753,0,0,1-.638-1.326,7.091,7.091,0,0,1-.225-1.9,8.846,8.846,0,0,1,.2-1.9,9.019,9.019,0,0,1,.572-1.754,8.128,8.128,0,0,1,.88-1.518,6.6,6.6,0,0,1,1.122-1.193,4.993,4.993,0,0,1,1.309-.781,3.847,3.847,0,0,1,1.447-.281,3.365,3.365,0,0,1,1.331.253,3.376,3.376,0,0,1,1.045.693l.726-5.83ZM90.6-9.383a1.792,1.792,0,0,0-.2-.011h-.2a3.362,3.362,0,0,0-1.617.4A4.012,4.012,0,0,0,87.313-7.92a5.26,5.26,0,0,0-.836,1.584,5.945,5.945,0,0,0-.3,1.9,2.994,2.994,0,0,0,.352,1.656,1.075,1.075,0,0,0,.924.511,1.353,1.353,0,0,0,.808-.3,3.324,3.324,0,0,0,.754-.814,7.085,7.085,0,0,0,.649-1.216,12.045,12.045,0,0,0,.517-1.49Zm-.748,7.249A6.313,6.313,0,0,1,88.226-.451a3.412,3.412,0,0,1-1.975.616,2.949,2.949,0,0,1-1.193-.248,2.756,2.756,0,0,1-1-.748A3.642,3.642,0,0,1,83.385-2.1a5.816,5.816,0,0,1-.247-1.788,7.778,7.778,0,0,1,.253-1.986,7.72,7.72,0,0,1,.726-1.809,7.66,7.66,0,0,1,1.149-1.557,7.379,7.379,0,0,1,1.507-1.215,7.372,7.372,0,0,1,1.8-.786,7.374,7.374,0,0,1,2.052-.281,10.963,10.963,0,0,1,1.584.115,7.644,7.644,0,0,1,1.562.4L92.411,0H90.794a1.3,1.3,0,0,1-.478-.077.79.79,0,0,1-.308-.209.729.729,0,0,1-.16-.308A1.586,1.586,0,0,1,89.8-.979Zm8.184-.572a2.035,2.035,0,0,0,.792.467,2.869,2.869,0,0,0,.858.138,1.961,1.961,0,0,0,1.215-.424,3.686,3.686,0,0,0,.951-1.111,6.1,6.1,0,0,0,.616-1.557,7.144,7.144,0,0,0,.22-1.76,3.105,3.105,0,0,0-.357-1.683,1.112,1.112,0,0,0-.974-.539,1.465,1.465,0,0,0-.83.292,3.948,3.948,0,0,0-.825.792,6.6,6.6,0,0,0-.743,1.183,9.655,9.655,0,0,0-.583,1.463Zm.605-6.336a6.956,6.956,0,0,1,1.793-1.81,3.736,3.736,0,0,1,2.123-.665,3.16,3.16,0,0,1,1.282.253,2.558,2.558,0,0,1,.99.776,3.753,3.753,0,0,1,.638,1.325,7.091,7.091,0,0,1,.226,1.9,8.9,8.9,0,0,1-.2,1.908,9.264,9.264,0,0,1-.566,1.755,7.756,7.756,0,0,1-.874,1.513A6.581,6.581,0,0,1,102.916-.9a5.082,5.082,0,0,1-1.314.781,3.819,3.819,0,0,1-1.436.281,3.365,3.365,0,0,1-1.331-.253A3.243,3.243,0,0,1,97.8-.781l-.55,4.444H94.3l1.826-15.015H97.68a1.083,1.083,0,0,1,.737.231.931.931,0,0,1,.264.737Zm11.352,6.336a2.035,2.035,0,0,0,.792.467,2.869,2.869,0,0,0,.858.138,1.961,1.961,0,0,0,1.215-.424,3.686,3.686,0,0,0,.951-1.111,6.1,6.1,0,0,0,.616-1.557,7.144,7.144,0,0,0,.22-1.76,3.105,3.105,0,0,0-.357-1.683,1.112,1.112,0,0,0-.974-.539,1.465,1.465,0,0,0-.83.292,3.948,3.948,0,0,0-.825.792,6.6,6.6,0,0,0-.743,1.183,9.655,9.655,0,0,0-.583,1.463Zm.605-6.336a6.956,6.956,0,0,1,1.793-1.81,3.736,3.736,0,0,1,2.123-.665,3.16,3.16,0,0,1,1.282.253,2.558,2.558,0,0,1,.99.776,3.753,3.753,0,0,1,.638,1.325,7.091,7.091,0,0,1,.226,1.9,8.9,8.9,0,0,1-.2,1.908,9.264,9.264,0,0,1-.566,1.755A7.756,7.756,0,0,1,116-2.085,6.581,6.581,0,0,1,114.873-.9a5.082,5.082,0,0,1-1.314.781,3.819,3.819,0,0,1-1.436.281,3.365,3.365,0,0,1-1.331-.253,3.243,3.243,0,0,1-1.034-.693l-.55,4.444H106.26l1.826-15.015h1.551a1.083,1.083,0,0,1,.737.231.931.931,0,0,1,.264.737Z" transform="translate(173.5 146)" fill="#eee" stroke="rgba(0,0,0,0)" stroke-width="1"/>
  </g>
</svg>
