<svg xmlns="http://www.w3.org/2000/svg" width="31.055" height="33.152" viewBox="0 0 31.055 33.152">
  <g id="icon" transform="translate(1.176 1.501)">
    <path id="Shape" d="M5.2,0,3.447,5.907,0,4.969Z" transform="translate(22.279 20.757)" fill="#e4761b" stroke="#e4761b" stroke-miterlimit="10" stroke-width="0.5"/>
    <path id="Shape-2" data-name="Shape" d="M0,4.969,3.325.437,5.2,0Z" transform="translate(22.279 20.757)" fill="#e4761b" stroke="#e4761b" stroke-miterlimit="10" stroke-width="0.5"/>
    <path id="Shape-3" data-name="Shape" d="M0,1.146,1.662,0l.921,5.6L.706,6.035Z" transform="translate(24.898 15.158)" fill="#f6851b" stroke="#f6851b" stroke-miterlimit="10" stroke-width="0.5"/>
    <path id="Shape-4" data-name="Shape" d="M0,1.948l4.541-.881L4.389,2.348ZM4.778,0,4.541,1.067,0,1.948Z" transform="translate(22.783 10.99)" fill="#763d16" stroke="#763d16" stroke-miterlimit="10" stroke-width="0.5"/>
    <path id="Shape-5" data-name="Shape" d="M0,1.948l4.389.4L3.778,4.167Zm4.541-.881.641.53-.792.751ZM4.778,0l.569.451-.806.616Z" transform="translate(22.783 10.99)" fill="#763d16" stroke="#763d16" stroke-miterlimit="10" stroke-width="0.5"/>
    <path id="Shape-6" data-name="Shape" d="M0,0,1.195.379l2.511,1.06Z" transform="translate(18.573 24.286)" fill="#e2761b" stroke="#e2761b" stroke-miterlimit="10" stroke-width="0.5"/>
    <path id="Shape-7" data-name="Shape" d="M5.57.4l.525.4L4.958,2.219ZM0,.594,1.18,0,4.958,2.219Z" transform="translate(21.602 12.938)" fill="#763d16" stroke="#763d16" stroke-miterlimit="10" stroke-width="0.5"/>
    <path id="Shape-8" data-name="Shape" d="M2.36,0,1.18,5.578,0,6.172Z" transform="translate(21.602 7.36)" fill="#763d16" stroke="#763d16" stroke-miterlimit="10" stroke-width="0.5"/>
    <path id="Shape-9" data-name="Shape" d="M4.778,3.63,0,5.578,1.18,0Z" transform="translate(22.783 7.36)" fill="#763d16" stroke="#763d16" stroke-miterlimit="10" stroke-width="0.5"/>
    <path id="Shape-10" data-name="Shape" d="M0,.573,4.987,0,3.6,4.2Z" transform="translate(23.963 6.788)" fill="#763d16" stroke="#763d16" stroke-miterlimit="10" stroke-width="0.5"/>
    <path id="Shape-11" data-name="Shape" d="M4.958,1.625,3.3,2.771,0,0Z" transform="translate(21.602 13.532)" fill="#f6851b" stroke="#f6851b" stroke-miterlimit="10" stroke-width="0.5"/>
    <path id="Shape-12" data-name="Shape" d="M4.771,0l.216,4.017L0,4.589Z" transform="translate(23.963 2.771)" fill="#763d16" stroke="#763d16" stroke-miterlimit="10" stroke-width="0.5"/>
    <path id="Shape-13" data-name="Shape" d="M10.1,0,.13,7.21,0,2.32Z" transform="translate(18.638 2.771)" fill="#e2761b" stroke="#e2761b" stroke-miterlimit="10" stroke-width="0.5"/>
    <path id="Shape-14" data-name="Shape" d="M0,0,7.412.587l.13,4.89Z" transform="translate(11.226 4.504)" fill="#f6851b" stroke="#f6851b" stroke-miterlimit="10" stroke-width="0.5"/>
    <path id="Shape-15" data-name="Shape" d="M2.835,6.172,0,2.621,5.2,0Z" transform="translate(18.767 7.36)" fill="#763d16" stroke="#763d16" stroke-miterlimit="10" stroke-width="0.5"/>
    <path id="Shape-16" data-name="Shape" d="M1.331,0l3.3,2.771L0,3.279Z" transform="translate(20.271 13.532)" fill="#e4761b" stroke="#e4761b" stroke-miterlimit="10" stroke-width="0.5"/>
    <path id="Shape-17" data-name="Shape" d="M1.5,6.831,0,0,2.835,3.551Z" transform="translate(18.767 9.981)" fill="#e4761b" stroke="#e4761b" stroke-miterlimit="10" stroke-width="0.5"/>
    <path id="Shape-18" data-name="Shape" d="M5.2,4.589,0,7.21,9.967,0Z" transform="translate(18.767 2.771)" fill="#763d16" stroke="#763d16" stroke-miterlimit="10" stroke-width="0.5"/>
    <path id="Shape-19" data-name="Shape" d="M.849.458,3.2,2.9,0,0Z" transform="translate(10.441 25.153)" fill="#c0ad9e" stroke="#c0ad9e" stroke-miterlimit="10" stroke-width="0.5"/>
    <path id="Shape-20" data-name="Shape" d="M0,4.532,1.115.315,3.325,0Z" transform="translate(22.279 21.193)" fill="#cd6116" stroke="#cd6116" stroke-miterlimit="10" stroke-width="0.5"/>
    <path id="Shape-21" data-name="Shape" d="M0,4.26,4.073,0,.525,3.752Z" transform="translate(1.749 9.601)" fill="#e2761b" stroke="#e2761b" stroke-miterlimit="10" stroke-width="0.5"/>
    <path id="Shape-22" data-name="Shape" d="M13.673,11.8l.7,4.89L12.169,17ZM3.577,5.349,0,0,7.541,5.477Z" transform="translate(11.226 4.504)" fill="#f6851b" stroke="#f6851b" stroke-miterlimit="10" stroke-width="0.5"/>
    <path id="Shape-23" data-name="Shape" d="M1.626,0,.122,5.205,0,2.663Z" transform="translate(23.272 16.303)" fill="#e4751f" stroke="#e4751f" stroke-miterlimit="10" stroke-width="0.5"/>
    <path id="Shape-24" data-name="Shape" d="M0,.508,4.627,0,3,2.663Z" transform="translate(20.271 16.303)" fill="#cd6116" stroke="#cd6116" stroke-miterlimit="10" stroke-width="0.5"/>
    <path id="Shape-25" data-name="Shape" d="M0,0,3.965.129l1.5,6.831Z" transform="translate(14.802 9.852)" fill="#f6851b" stroke="#f6851b" stroke-miterlimit="10" stroke-width="0.5"/>
    <path id="Shape-26" data-name="Shape" d="M0,22.919l11.154,4.189-9.3,2.865ZM4.037,0l7.123,4.5,3.577,5.349Z" transform="translate(0.065)" fill="#e4761b" stroke="#e4761b" stroke-miterlimit="10" stroke-width="0.5"/>
    <path id="Shape-27" data-name="Shape" d="M0,2.742,3.512,0,6.455.68Z" transform="translate(3.13 12.881)" fill="#763d16" stroke="#763d16" stroke-miterlimit="10" stroke-width="0.5"/>
    <path id="Shape-28" data-name="Shape" d="M2.943,7.153,0,6.473,1.576,0Z" transform="translate(6.642 6.408)" fill="#763d16" stroke="#763d16" stroke-miterlimit="10" stroke-width="0.5"/>
    <path id="Shape-29" data-name="Shape" d="M0,.473,4.368,0,.856,2.742Z" transform="translate(2.274 12.881)" fill="#763d16" stroke="#763d16" stroke-miterlimit="10" stroke-width="0.5"/>
    <path id="Shape-30" data-name="Shape" d="M3,2.155,1.187,1.246,0,0Z" transform="translate(20.271 16.811)" fill="#cd6116" stroke="#cd6116" stroke-miterlimit="10" stroke-width="0.5"/>
    <path id="Shape-31" data-name="Shape" d="M.309,1.625,0,0,4.677,1.153Z" transform="translate(1.965 11.728)" fill="#763d16" stroke="#763d16" stroke-miterlimit="10" stroke-width="0.5"/>
    <path id="Shape-32" data-name="Shape" d="M0,2.048.374,0,2.188.909Z" transform="translate(21.084 18.057)" fill="#233447" stroke="#233447" stroke-miterlimit="10" stroke-width="0.5"/>
    <path id="Shape-33" data-name="Shape" d="M2.31,2.542,0,1.138,2.188,0Z" transform="translate(21.084 18.967)" fill="#f6851b" stroke="#f6851b" stroke-miterlimit="10" stroke-width="0.5"/>
    <path id="Shape-34" data-name="Shape" d="M6.635,0l6.584,3.444L8,7.152ZM5.059,6.473.382,5.32,0,3.952,6.635,0Z" transform="translate(1.583 6.408)" fill="#763d16" stroke="#763d16" stroke-miterlimit="10" stroke-width="0.5"/>
    <path id="Shape-35" data-name="Shape" d="M0,3.709,5.217,0,7.541,7.067ZM.331,6.917,0,3.709,7.541,7.067Z" transform="translate(9.585 9.852)" fill="#e4761b" stroke="#e4761b" stroke-miterlimit="10" stroke-width="0.5"/>
    <path id="Shape-36" data-name="Shape" d="M11.672,0l5.468,6.96L14,7.067ZM0,5.771,6.455,3.709l.331,3.208Z" transform="translate(3.13 9.852)" fill="#f6851b" stroke="#f6851b" stroke-miterlimit="10" stroke-width="0.5"/>
    <path id="Shape-37" data-name="Shape" d="M1.187,1.246.813,3.294,0,0Z" transform="translate(20.271 16.811)" fill="#cd6116" stroke="#cd6116" stroke-miterlimit="10" stroke-width="0.5"/>
    <path id="Shape-38" data-name="Shape" d="M0,0,10.7,9.852,4.116,6.408Z" transform="translate(4.102)" fill="#763d16" stroke="#763d16" stroke-miterlimit="10" stroke-width="0.5"/>
    <path id="Shape-39" data-name="Shape" d="M0,.372,9.024,0l2.13,4.561Z" transform="translate(0.065 22.547)" fill="#e4761b" stroke="#e4761b" stroke-miterlimit="10" stroke-width="0.5"/>
    <path id="Shape-40" data-name="Shape" d="M2.13,4.776,0,.215,4.433,0Z" transform="translate(9.089 22.332)" fill="#cd6116" stroke="#cd6116" stroke-miterlimit="10" stroke-width="0.5"/>
    <path id="Shape-41" data-name="Shape" d="M21.02,4.482l2.31,1.4L24.6,8.871ZM9.851,1.146,9.023,6.924,0,7.3ZM3.065,0,9.851,1.146,0,7.3Zm14,1.3,3.145-.107.59,2.133-2.849.165Z" transform="translate(0.065 15.623)" fill="#f6851b" stroke="#f6851b" stroke-miterlimit="10" stroke-width="0.5"/>
    <path id="Shape-42" data-name="Shape" d="M2.425.945,0,0,8.434,1.411Z" transform="translate(11.219 27.107)" fill="#c0ad9e" stroke="#c0ad9e" stroke-miterlimit="10" stroke-width="0.5"/>
    <path id="Shape-43" data-name="Shape" d="M1.382,2.27,0,.508.525,0Z" transform="translate(1.749 13.353)" fill="#763d16" stroke="#763d16" stroke-miterlimit="10" stroke-width="0.5"/>
    <path id="Shape-44" data-name="Shape" d="M9.391.365,8.434,1.411,0,0Z" transform="translate(11.219 27.107)" fill="#d7c1b3" stroke="#d7c1b3" stroke-miterlimit="10" stroke-width="0.5"/>
    <path id="Shape-45" data-name="Shape" d="M9.844,2.578,0,4.776,2.3,0Z" transform="translate(11.219 22.332)" fill="#e4761b" stroke="#e4761b" stroke-miterlimit="10" stroke-width="0.5"/>
    <path id="Shape-46" data-name="Shape" d="M0,2.2,9.844,0,9.391,2.563Z" transform="translate(11.219 24.909)" fill="#d7c1b3" stroke="#d7c1b3" stroke-miterlimit="10" stroke-width="0.5"/>
    <path id="Shape-47" data-name="Shape" d="M.058,7.532l.648-.659L1.014,8.5ZM0,0,6.959,1.553.324,5.506Z" transform="translate(1.259 4.854)" fill="#763d16" stroke="#763d16" stroke-miterlimit="10" stroke-width="0.5"/>
    <path id="Shape-48" data-name="Shape" d="M0,1.418,1.612,0l-.23,3.465Z" transform="translate(15.515 16.919)" fill="#cd6116" stroke="#cd6116" stroke-miterlimit="10" stroke-width="0.5"/>
    <path id="Shape-49" data-name="Shape" d="M3.958,0,2.346,1.418,0,2.628Z" transform="translate(13.169 16.919)" fill="#cd6116" stroke="#cd6116" stroke-miterlimit="10" stroke-width="0.5"/>
    <path id="Shape-50" data-name="Shape" d="M3.584,4.389l-.439-.322L0,0Z" transform="translate(21.084 20.105)" fill="#f6851b" stroke="#f6851b" stroke-miterlimit="10" stroke-width="0.5"/>
    <path id="Shape-51" data-name="Shape" d="M3.253,2.778,0,0,7.21.15Z" transform="translate(9.916 16.768)" fill="#cd6116" stroke="#cd6116" stroke-miterlimit="10" stroke-width="0.5"/>
    <path id="Shape-52" data-name="Shape" d="M0,3.465.23,0l.885,2.191Z" transform="translate(16.896 16.919)" fill="#e4751f" stroke="#e4751f" stroke-miterlimit="10" stroke-width="0.5"/>
    <path id="Shape-53" data-name="Shape" d="M0,.544.583,0,.964,1.368Z" transform="translate(1 10.36)" fill="#763d16" stroke="#763d16" stroke-miterlimit="10" stroke-width="0.5"/>
    <path id="Shape-54" data-name="Shape" d="M3.728,2.048,0,1.21,2.346,0Z" transform="translate(13.169 18.337)" fill="#233447" stroke="#233447" stroke-miterlimit="10" stroke-width="0.5"/>
    <path id="Shape-55" data-name="Shape" d="M6.959,6.408,0,4.854,2.842,0Z" transform="translate(1.259)" fill="#763d16" stroke="#763d16" stroke-miterlimit="10" stroke-width="0.5"/>
    <path id="Shape-56" data-name="Shape" d="M6.009.465l.4,1.074L0,0Z" transform="translate(13.644 28.053)" fill="#c0ad9e" stroke="#c0ad9e" stroke-miterlimit="10" stroke-width="0.5"/>
    <path id="Shape-57" data-name="Shape" d="M.353,2.785,0,0,3.728.838Z" transform="translate(13.169 19.547)" fill="#f6851b" stroke="#f6851b" stroke-miterlimit="10" stroke-width="0.5"/>
    <path id="Shape-58" data-name="Shape" d="M0,0,3.253,2.778l.353,2.785Z" transform="translate(9.916 16.768)" fill="#e4751f" stroke="#e4751f" stroke-miterlimit="10" stroke-width="0.5"/>
    <path id="Shape-59" data-name="Shape" d="M8.924,2.341l2.849-.165L15.141,7.4ZM.827,0,4.432,5.563,0,5.778Z" transform="translate(9.089 16.768)" fill="#f6851b" stroke="#f6851b" stroke-miterlimit="10" stroke-width="0.5"/>
    <path id="Shape-60" data-name="Shape" d="M1.115,0l3.54,5.363L0,1.274Z" transform="translate(16.896 19.11)" fill="#e4751f" stroke="#e4751f" stroke-miterlimit="10" stroke-width="0.5"/>
    <path id="Shape-61" data-name="Shape" d="M0,0,4.656,4.088l-.489.437Z" transform="translate(16.896 20.384)" fill="#f6851b" stroke="#f6851b" stroke-miterlimit="10" stroke-width="0.5"/>
    <path id="Shape-62" data-name="Shape" d="M0,3.222,3.375,1.274,7.541,5.8ZM4.49,0l6.217,5.063-2.677.3Z" transform="translate(13.521 19.11)" fill="#f6851b" stroke="#f6851b" stroke-miterlimit="10" stroke-width="0.5"/>
    <path id="Shape-63" data-name="Shape" d="M0,1.826.957.78.4,2.9,5.282,0,4.13,2.3.4,2.9Z" transform="translate(19.652 26.692)" fill="#c0ad9e" stroke="#c0ad9e" stroke-miterlimit="10" stroke-width="0.5"/>
    <path id="Shape-64" data-name="Shape" d="M1.266.5,4.886,0,0,2.9ZM.562.78,1.266.5,0,2.9Z" transform="translate(20.048 26.692)" fill="#c0ad9e" stroke="#c0ad9e" stroke-miterlimit="10" stroke-width="0.5"/>
    <path id="Shape-65" data-name="Shape" d="M1.806,0l.885.537L0,.859Z" transform="translate(22.423 24.172)" fill="#161616" stroke="#161616" stroke-miterlimit="10" stroke-width="0.5"/>
    <path id="Shape-66" data-name="Shape" d="M.562,1.282,3.836.887,3.382,2.52ZM0,.3,2.677,0,.87.86Z" transform="translate(21.552 24.172)" fill="#161616" stroke="#161616" stroke-miterlimit="10" stroke-width="0.5"/>
    <path id="Shape-67" data-name="Shape" d="M.454.437.942,0l.871.559L.454.437.706,2.721,0,3ZM1.5.981l3-.744.274.35L1.5.981,4.325,2.219l-3.619.5Z" transform="translate(20.609 24.473)" fill="#161616" stroke="#161616" stroke-miterlimit="10" stroke-width="0.5"/>
    <path id="Shape-68" data-name="Shape" d="M0,.2,1.05.744l-.8,1.741ZM1.36.322,4.052,0l-3,.744Z" transform="translate(21.063 24.709)" fill="#161616" stroke="#161616" stroke-miterlimit="10" stroke-width="0.5"/>
    <path id="Shape-69" data-name="Shape" d="M1.36.122,1.051.544,0,0Z" transform="translate(21.063 24.909)" fill="#161616" stroke="#161616" stroke-miterlimit="10" stroke-width="0.5"/>
  </g>
</svg>
